<?xml version="1.0" encoding="UTF-8"?>
<svg xmlns="http://www.w3.org/2000/svg" xml:space="preserve" id="Icons" x="0" y="0" version="1.1" viewBox="0 0 48 48">
  <style>
    .st2{fill:#ebcb00}.st3{fill:none}.st3,.st36,.st92{stroke:#45413c;stroke-linecap:round;stroke-linejoin:round;stroke-miterlimit:10}.st36{fill:#fff}.st92{fill:#e5feff}
  </style>
  <g id="XMLID_14472_">
    <path id="XMLID_14502_" d="M32.9 20.8v3.6h3.2c.9 0 1.6.7 1.6 1.6v4.8c0 1.3-.8 2.5-2 3L32.9 35v4.4l4.6-2c2.4-1 3.9-3.4 3.9-5.9v-6.7c0-2.2-1.8-4-4-4h-4.5z" class="st92"/>
    <path id="XMLID_14501_" fill="#ffe500" d="M34.1 41.9h-23c.8-.8 1.2-1.8 1.2-2.9V17.2h20.6V39c0 1 .5 2.1 1.2 2.9z"/>
    <path id="XMLID_14500_" fill="#fff48c" d="M22.4 17.2H12.3V39c0 1.1-.4 2.1-1.2 2.9h11.3V17.2z"/>
    <ellipse id="XMLID_14499_" cx="22.6" cy="45.5" fill="#45413c" opacity=".15" rx="14.5" ry="1.5"/>
    <path id="XMLID_14498_" d="M34.1 41.9h-23 0c.8-.8 1.2-1.8 1.2-2.9V17.2h20.6V39c0 1 .5 2.1 1.2 2.9h0z" class="st3"/>
    <circle id="XMLID_14497_" cx="16" cy="26.4" r="1.2" class="st2"/>
    <circle id="XMLID_14496_" cx="30.1" cy="23.2" r=".8" class="st2"/>
    <circle id="XMLID_14495_" cx="33.3" cy="8.5" r="1.1" class="st36"/>
    <circle id="XMLID_14494_" cx="11.7" cy="8.3" r="1" class="st36"/>
    <path id="XMLID_14493_" fill="#45413c" d="M12.3 19.6h.4c.5 0 .9-.1 1.3-.3v2.9c0 .6.5 1.1 1.1 1.1s1.1-.5 1.1-1.1v-2.8c.4.1.8.2 1.3.2.3 0 .6 0 .9-.1v5.3c0 1.1.9 1.9 1.9 1.9 1.1 0 1.9-.9 1.9-1.9v-5.2c1.1 0 2.1-.3 3-.9.7.5 1.6.9 2.6.9s1.9-.3 2.6-.9c.5.5 1.3.9 2.1.9h.4v-2.5H12.3v2.5z" opacity=".15"/>
    <g id="XMLID_14484_">
      <path id="XMLID_14492_" d="M17.1 1.1V.5" class="st3"/>
      <path id="XMLID_14491_" d="m18.3 1.6.5-.4" class="st3"/>
      <path id="XMLID_14490_" d="M18.9 2.9h.6" class="st3"/>
      <path id="XMLID_14489_" d="m18.3 4.2.5.4" class="st3"/>
      <path id="XMLID_14488_" d="M17.1 4.7v.6" class="st3"/>
      <path id="XMLID_14487_" d="m15.8 4.2-.5.4" class="st3"/>
      <path id="XMLID_14486_" d="M15.2 2.9h-.6" class="st3"/>
      <path id="XMLID_14485_" d="m15.8 1.6-.5-.4" class="st3"/>
    </g>
    <g id="XMLID_14481_">
      <path id="XMLID_14483_" d="M26.7 5V3.4" class="st3"/>
      <path id="XMLID_14482_" d="M25.8 4.2h1.7" class="st3"/>
    </g>
    <path id="XMLID_14480_" d="M35.5 15.1c0-1.7-1.3-3-3-3-.3 0-.5 0-.7.1-.6-1.6-2.2-2.7-4-2.7-.3 0-.6 0-.8.1C26 8 24.2 7 22.2 7s-3.7 1-4.7 2.6c0 0 0 0 0 0-1.8 0-3.3 1.1-4 2.7-.2-.1-.5-.1-.7-.1-1.7 0-3 1.3-3 3s1.3 3 3 3c.5 0 .9-.1 1.3-.3v2.9c0 .6.5 1.1 1.1 1.1.6 0 1.1-.5 1.1-1.1V18c.4.1.8.2 1.3.2.3 0 .6 0 .9-.1v5.3c0 1.1.9 1.9 1.9 1.9 1.1 0 1.9-.9 1.9-1.9v-5.2c1.1 0 2.1-.3 3-.9.7.5 1.6.9 2.6.9s1.9-.3 2.6-.9c.5.5 1.3.9 2.1.9 1.6 0 2.9-1.4 2.9-3.1z" class="st36"/>
    <circle id="XMLID_14479_" cx="28.1" cy="34.5" r="1.2" class="st2"/>
    <circle id="XMLID_14478_" cx="18.4" cy="36.9" r=".8" class="st2"/>
    <circle id="XMLID_14477_" cx="14.8" cy="30.8" r=".8" class="st2"/>
    <circle id="XMLID_14476_" cx="25.7" cy="26.9" r=".8" class="st2"/>
    <g id="XMLID_14474_">
      <path id="XMLID_14475_" d="M21.9 31.3c0 .9-.7 1.6-1.6 1.6-.9 0-1.6-.7-1.6-1.6 0-.7.9-2.3 1.3-3.1.1-.1.2-.2.3-.2.1 0 .2.1.3.2.4.8 1.3 2.4 1.3 3.1z" class="st36"/>
    </g>
    <path id="XMLID_14473_" d="M35.7 43.7c0 1-.8 1.8-1.8 1.8H11.3c-1 0-1.8-.8-1.8-1.8s.8-1.8 1.8-1.8H34c1 0 1.7.8 1.7 1.8z" class="st92"/>
  </g>
</svg>